<svg opacity="0.09" version="1.0" xmlns="http://www.w3.org/2000/svg"
 width="1200.000000pt" height="600.000000pt" viewBox="0 0 1200.000000 600.000000"
 preserveAspectRatio="xMidYMid meet">
<g transform="translate(0.000000,600.000000) scale(0.100000,-0.100000)"
fill="#fff" stroke="none">
<path d="M165 5926 c-37 -17 -80 -62 -94 -99 -14 -36 -14 -118 0 -154 26 -69
95 -113 179 -113 84 0 153 44 179 113 14 36 14 118 0 154 -14 38 -57 83 -96
99 -41 18 -129 17 -168 0z m162 -56 c87 -52 83 -198 -6 -245 -98 -50 -211 16
-211 123 0 85 56 142 140 142 27 0 58 -8 77 -20z"/>
<path d="M6165 5926 c-37 -17 -80 -62 -94 -99 -6 -16 -11 -50 -11 -77 0 -117
73 -190 190 -190 61 0 106 18 142 56 35 38 48 74 48 134 0 118 -74 190 -192
190 -29 -1 -66 -7 -83 -14z m162 -56 c87 -52 83 -198 -6 -245 -98 -50 -211 16
-211 123 0 85 56 142 140 142 27 0 58 -8 77 -20z"/>
<path d="M7665 5926 c-37 -17 -80 -62 -94 -99 -6 -16 -11 -50 -11 -77 0 -117
73 -190 190 -190 61 0 106 18 142 56 35 38 48 74 48 134 0 118 -74 190 -192
190 -29 -1 -66 -7 -83 -14z m162 -56 c87 -52 83 -198 -6 -245 -98 -50 -211 16
-211 123 0 85 56 142 140 142 27 0 58 -8 77 -20z"/>
<path d="M8165 5926 c-37 -17 -80 -62 -94 -99 -6 -16 -11 -50 -11 -77 0 -117
73 -190 190 -190 61 0 106 18 142 56 35 38 48 74 48 134 0 118 -74 190 -192
190 -29 -1 -66 -7 -83 -14z m162 -56 c87 -52 83 -198 -6 -245 -98 -50 -211 16
-211 123 0 85 56 142 140 142 27 0 58 -8 77 -20z"/>
<path d="M8665 5926 c-37 -17 -80 -62 -94 -99 -6 -16 -11 -50 -11 -77 0 -117
73 -190 190 -190 61 0 106 18 142 56 35 38 48 74 48 134 0 118 -74 190 -192
190 -29 -1 -66 -7 -83 -14z m162 -56 c87 -52 83 -198 -6 -245 -98 -50 -211 16
-211 123 0 85 56 142 140 142 27 0 58 -8 77 -20z"/>
<path d="M9165 5926 c-37 -17 -80 -62 -94 -99 -6 -16 -11 -50 -11 -77 0 -117
73 -190 190 -190 61 0 106 18 142 56 35 38 48 74 48 134 0 118 -74 190 -192
190 -29 -1 -66 -7 -83 -14z m162 -56 c87 -52 83 -198 -6 -245 -98 -50 -211 16
-211 123 0 85 56 142 140 142 27 0 58 -8 77 -20z"/>
<path d="M9665 5926 c-37 -17 -80 -62 -94 -99 -6 -16 -11 -50 -11 -77 0 -117
73 -190 190 -190 61 0 106 18 142 56 35 38 48 74 48 134 0 118 -74 190 -192
190 -29 -1 -66 -7 -83 -14z m162 -56 c87 -52 83 -198 -6 -245 -98 -50 -211 16
-211 123 0 85 56 142 140 142 27 0 58 -8 77 -20z"/>
<path d="M11665 5926 c-37 -17 -80 -62 -94 -99 -6 -16 -11 -50 -11 -77 0 -117
73 -190 190 -190 61 0 106 18 142 56 35 38 48 74 48 134 0 118 -74 190 -192
190 -29 -1 -66 -7 -83 -14z m162 -56 c87 -52 83 -198 -6 -245 -98 -50 -211 16
-211 123 0 85 56 142 140 142 27 0 58 -8 77 -20z"/>
<path d="M665 5426 c-37 -17 -80 -62 -94 -99 -6 -16 -11 -50 -11 -77 0 -117
73 -190 190 -190 84 0 153 44 179 113 14 36 14 118 0 154 -14 38 -57 83 -96
99 -41 18 -129 17 -168 0z m162 -56 c87 -52 83 -198 -6 -245 -98 -50 -211 16
-211 123 0 85 56 142 140 142 27 0 58 -8 77 -20z"/>
<path d="M6665 5426 c-37 -17 -80 -62 -94 -99 -6 -16 -11 -50 -11 -77 0 -117
73 -190 190 -190 61 0 106 18 142 56 35 38 48 74 48 134 0 118 -74 190 -192
190 -29 -1 -66 -7 -83 -14z m162 -56 c87 -52 83 -198 -6 -245 -98 -50 -211 16
-211 123 0 85 56 142 140 142 27 0 58 -8 77 -20z"/>
<path d="M8165 5426 c-37 -17 -80 -62 -94 -99 -6 -16 -11 -50 -11 -77 0 -117
73 -190 190 -190 61 0 106 18 142 56 35 38 48 74 48 134 0 118 -74 190 -192
190 -29 -1 -66 -7 -83 -14z m162 -56 c87 -52 83 -198 -6 -245 -98 -50 -211 16
-211 123 0 85 56 142 140 142 27 0 58 -8 77 -20z"/>
<path d="M8665 5426 c-37 -17 -80 -62 -94 -99 -6 -16 -11 -50 -11 -77 0 -117
73 -190 190 -190 61 0 106 18 142 56 35 38 48 74 48 134 0 118 -74 190 -192
190 -29 -1 -66 -7 -83 -14z m162 -56 c87 -52 83 -198 -6 -245 -98 -50 -211 16
-211 123 0 85 56 142 140 142 27 0 58 -8 77 -20z"/>
<path d="M9165 5426 c-37 -17 -80 -62 -94 -99 -6 -16 -11 -50 -11 -77 0 -117
73 -190 190 -190 61 0 106 18 142 56 35 38 48 74 48 134 0 118 -74 190 -192
190 -29 -1 -66 -7 -83 -14z m162 -56 c87 -52 83 -198 -6 -245 -98 -50 -211 16
-211 123 0 85 56 142 140 142 27 0 58 -8 77 -20z"/>
<path d="M9665 5426 c-37 -17 -80 -62 -94 -99 -6 -16 -11 -50 -11 -77 0 -117
73 -190 190 -190 61 0 106 18 142 56 35 38 48 74 48 134 0 118 -74 190 -192
190 -29 -1 -66 -7 -83 -14z m162 -56 c87 -52 83 -198 -6 -245 -98 -50 -211 16
-211 123 0 85 56 142 140 142 27 0 58 -8 77 -20z"/>
<path d="M10165 5426 c-37 -17 -80 -62 -94 -99 -6 -16 -11 -50 -11 -77 0 -117
73 -190 190 -190 61 0 106 18 142 56 35 38 48 74 48 134 0 118 -74 190 -192
190 -29 -1 -66 -7 -83 -14z m162 -56 c87 -52 83 -198 -6 -245 -98 -50 -211 16
-211 123 0 85 56 142 140 142 27 0 58 -8 77 -20z"/>
<path d="M11165 5426 c-37 -17 -80 -62 -94 -99 -6 -16 -11 -50 -11 -77 0 -117
73 -190 190 -190 61 0 106 18 142 56 35 38 48 74 48 134 0 118 -74 190 -192
190 -29 -1 -66 -7 -83 -14z m162 -56 c87 -52 83 -198 -6 -245 -98 -50 -211 16
-211 123 0 85 56 142 140 142 27 0 58 -8 77 -20z"/>
<path d="M1165 4926 c-37 -17 -80 -62 -94 -99 -6 -16 -11 -50 -11 -77 0 -117
73 -190 190 -190 61 0 106 18 142 56 35 38 48 74 48 134 0 118 -74 190 -192
190 -29 -1 -66 -7 -83 -14z m162 -56 c87 -52 83 -198 -6 -245 -98 -50 -211 16
-211 123 0 85 56 142 140 142 27 0 58 -8 77 -20z"/>
<path d="M7165 4926 c-37 -17 -80 -62 -94 -99 -6 -16 -11 -50 -11 -77 0 -117
73 -190 190 -190 61 0 106 18 142 56 35 38 48 74 48 134 0 118 -74 190 -192
190 -29 -1 -66 -7 -83 -14z m162 -56 c87 -52 83 -198 -6 -245 -98 -50 -211 16
-211 123 0 85 56 142 140 142 27 0 58 -8 77 -20z"/>
<path d="M8665 4926 c-37 -17 -80 -62 -94 -99 -6 -16 -11 -50 -11 -77 0 -117
73 -190 190 -190 61 0 106 18 142 56 35 38 48 74 48 134 0 118 -74 190 -192
190 -29 -1 -66 -7 -83 -14z m162 -56 c87 -52 83 -198 -6 -245 -98 -50 -211 16
-211 123 0 85 56 142 140 142 27 0 58 -8 77 -20z"/>
<path d="M9165 4926 c-37 -17 -80 -62 -94 -99 -6 -16 -11 -50 -11 -77 0 -117
73 -190 190 -190 61 0 106 18 142 56 35 38 48 74 48 134 0 118 -74 190 -192
190 -29 -1 -66 -7 -83 -14z m162 -56 c87 -52 83 -198 -6 -245 -98 -50 -211 16
-211 123 0 85 56 142 140 142 27 0 58 -8 77 -20z"/>
<path d="M9665 4926 c-37 -17 -80 -62 -94 -99 -6 -16 -11 -50 -11 -77 0 -117
73 -190 190 -190 61 0 106 18 142 56 35 38 48 74 48 134 0 118 -74 190 -192
190 -29 -1 -66 -7 -83 -14z m162 -56 c87 -52 83 -198 -6 -245 -98 -50 -211 16
-211 123 0 85 56 142 140 142 27 0 58 -8 77 -20z"/>
<path d="M10165 4926 c-37 -17 -80 -62 -94 -99 -6 -16 -11 -50 -11 -77 0 -117
73 -190 190 -190 61 0 106 18 142 56 35 38 48 74 48 134 0 118 -74 190 -192
190 -29 -1 -66 -7 -83 -14z m162 -56 c87 -52 83 -198 -6 -245 -98 -50 -211 16
-211 123 0 85 56 142 140 142 27 0 58 -8 77 -20z"/>
<path d="M10665 4926 c-37 -17 -80 -62 -94 -99 -6 -16 -11 -50 -11 -77 0 -117
73 -190 190 -190 61 0 106 18 142 56 35 38 48 74 48 134 0 118 -74 190 -192
190 -29 -1 -66 -7 -83 -14z m162 -56 c87 -52 83 -198 -6 -245 -98 -50 -211 16
-211 123 0 85 56 142 140 142 27 0 58 -8 77 -20z"/>
<path d="M11665 4926 c-37 -17 -80 -62 -94 -99 -6 -16 -11 -50 -11 -77 0 -117
73 -190 190 -190 61 0 106 18 142 56 35 38 48 74 48 134 0 118 -74 190 -192
190 -29 -1 -66 -7 -83 -14z m162 -56 c87 -52 83 -198 -6 -245 -98 -50 -211 16
-211 123 0 85 56 142 140 142 27 0 58 -8 77 -20z"/>
<path d="M1665 4426 c-37 -17 -80 -62 -94 -99 -6 -16 -11 -50 -11 -77 0 -117
73 -190 190 -190 61 0 106 18 142 56 35 38 48 74 48 134 0 118 -74 190 -192
190 -29 -1 -66 -7 -83 -14z m162 -56 c87 -52 83 -198 -6 -245 -98 -50 -211 16
-211 123 0 85 56 142 140 142 27 0 58 -8 77 -20z"/>
<path d="M6165 4426 c-37 -17 -80 -62 -94 -99 -6 -16 -11 -50 -11 -77 0 -117
73 -190 190 -190 61 0 106 18 142 56 35 38 48 74 48 134 0 118 -74 190 -192
190 -29 -1 -66 -7 -83 -14z m162 -56 c87 -52 83 -198 -6 -245 -98 -50 -211 16
-211 123 0 85 56 142 140 142 27 0 58 -8 77 -20z"/>
<path d="M7665 4426 c-37 -17 -80 -62 -94 -99 -6 -16 -11 -50 -11 -77 0 -117
73 -190 190 -190 61 0 106 18 142 56 35 38 48 74 48 134 0 118 -74 190 -192
190 -29 -1 -66 -7 -83 -14z m162 -56 c87 -52 83 -198 -6 -245 -98 -50 -211 16
-211 123 0 85 56 142 140 142 27 0 58 -8 77 -20z"/>
<path d="M9165 4426 c-37 -17 -80 -62 -94 -99 -6 -16 -11 -50 -11 -77 0 -117
73 -190 190 -190 61 0 106 18 142 56 35 38 48 74 48 134 0 118 -74 190 -192
190 -29 -1 -66 -7 -83 -14z m162 -56 c87 -52 83 -198 -6 -245 -98 -50 -211 16
-211 123 0 85 56 142 140 142 27 0 58 -8 77 -20z"/>
<path d="M9665 4426 c-37 -17 -80 -62 -94 -99 -6 -16 -11 -50 -11 -77 0 -117
73 -190 190 -190 61 0 106 18 142 56 35 38 48 74 48 134 0 118 -74 190 -192
190 -29 -1 -66 -7 -83 -14z m162 -56 c87 -52 83 -198 -6 -245 -98 -50 -211 16
-211 123 0 85 56 142 140 142 27 0 58 -8 77 -20z"/>
<path d="M10165 4426 c-37 -17 -80 -62 -94 -99 -6 -16 -11 -50 -11 -77 0 -117
73 -190 190 -190 61 0 106 18 142 56 35 38 48 74 48 134 0 118 -74 190 -192
190 -29 -1 -66 -7 -83 -14z m162 -56 c87 -52 83 -198 -6 -245 -98 -50 -211 16
-211 123 0 85 56 142 140 142 27 0 58 -8 77 -20z"/>
<path d="M10665 4426 c-37 -17 -80 -62 -94 -99 -6 -16 -11 -50 -11 -77 0 -117
73 -190 190 -190 61 0 106 18 142 56 35 38 48 74 48 134 0 118 -74 190 -192
190 -29 -1 -66 -7 -83 -14z m162 -56 c87 -52 83 -198 -6 -245 -98 -50 -211 16
-211 123 0 85 56 142 140 142 27 0 58 -8 77 -20z"/>
<path d="M11165 4426 c-37 -17 -80 -62 -94 -99 -6 -16 -11 -50 -11 -77 0 -117
73 -190 190 -190 61 0 106 18 142 56 35 38 48 74 48 134 0 118 -74 190 -192
190 -29 -1 -66 -7 -83 -14z m162 -56 c87 -52 83 -198 -6 -245 -98 -50 -211 16
-211 123 0 85 56 142 140 142 27 0 58 -8 77 -20z"/>
<path d="M2165 3926 c-37 -17 -80 -62 -94 -99 -6 -16 -11 -50 -11 -77 0 -117
73 -190 190 -190 61 0 106 18 142 56 35 38 48 74 48 134 0 118 -74 190 -192
190 -29 -1 -66 -7 -83 -14z m162 -56 c87 -52 83 -198 -6 -245 -98 -50 -211 16
-211 123 0 85 56 142 140 142 27 0 58 -8 77 -20z"/>
<path d="M6165 3926 c-37 -17 -80 -62 -94 -99 -6 -16 -11 -50 -11 -77 0 -117
73 -190 190 -190 61 0 106 18 142 56 35 38 48 74 48 134 0 118 -74 190 -192
190 -29 -1 -66 -7 -83 -14z m162 -56 c87 -52 83 -198 -6 -245 -98 -50 -211 16
-211 123 0 85 56 142 140 142 27 0 58 -8 77 -20z"/>
<path d="M6665 3926 c-37 -17 -80 -62 -94 -99 -6 -16 -11 -50 -11 -77 0 -117
73 -190 190 -190 61 0 106 18 142 56 35 38 48 74 48 134 0 118 -74 190 -192
190 -29 -1 -66 -7 -83 -14z m162 -56 c87 -52 83 -198 -6 -245 -98 -50 -211 16
-211 123 0 85 56 142 140 142 27 0 58 -8 77 -20z"/>
<path d="M8165 3926 c-37 -17 -80 -62 -94 -99 -6 -16 -11 -50 -11 -77 0 -117
73 -190 190 -190 61 0 106 18 142 56 35 38 48 74 48 134 0 118 -74 190 -192
190 -29 -1 -66 -7 -83 -14z m162 -56 c87 -52 83 -198 -6 -245 -98 -50 -211 16
-211 123 0 85 56 142 140 142 27 0 58 -8 77 -20z"/>
<path d="M9665 3926 c-37 -17 -80 -62 -94 -99 -6 -16 -11 -50 -11 -77 0 -117
73 -190 190 -190 61 0 106 18 142 56 35 38 48 74 48 134 0 118 -74 190 -192
190 -29 -1 -66 -7 -83 -14z m162 -56 c87 -52 83 -198 -6 -245 -98 -50 -211 16
-211 123 0 85 56 142 140 142 27 0 58 -8 77 -20z"/>
<path d="M10165 3926 c-37 -17 -80 -62 -94 -99 -6 -16 -11 -50 -11 -77 0 -117
73 -190 190 -190 61 0 106 18 142 56 35 38 48 74 48 134 0 118 -74 190 -192
190 -29 -1 -66 -7 -83 -14z m162 -56 c87 -52 83 -198 -6 -245 -98 -50 -211 16
-211 123 0 85 56 142 140 142 27 0 58 -8 77 -20z"/>
<path d="M10665 3926 c-37 -17 -80 -62 -94 -99 -6 -16 -11 -50 -11 -77 0 -117
73 -190 190 -190 61 0 106 18 142 56 35 38 48 74 48 134 0 118 -74 190 -192
190 -29 -1 -66 -7 -83 -14z m162 -56 c87 -52 83 -198 -6 -245 -98 -50 -211 16
-211 123 0 85 56 142 140 142 27 0 58 -8 77 -20z"/>
<path d="M11665 3926 c-37 -17 -80 -62 -94 -99 -6 -16 -11 -50 -11 -77 0 -117
73 -190 190 -190 61 0 106 18 142 56 35 38 48 74 48 134 0 118 -74 190 -192
190 -29 -1 -66 -7 -83 -14z m162 -56 c87 -52 83 -198 -6 -245 -98 -50 -211 16
-211 123 0 85 56 142 140 142 27 0 58 -8 77 -20z"/>
<path d="M2665 3426 c-37 -17 -80 -62 -94 -99 -6 -16 -11 -50 -11 -77 0 -117
73 -190 190 -190 61 0 106 18 142 56 35 38 48 74 48 134 0 118 -74 190 -192
190 -29 -1 -66 -7 -83 -14z m162 -56 c87 -52 83 -198 -6 -245 -98 -50 -211 16
-211 123 0 85 56 142 140 142 27 0 58 -8 77 -20z"/>
<path d="M6165 3426 c-37 -17 -80 -62 -94 -99 -6 -16 -11 -50 -11 -77 0 -117
73 -190 190 -190 61 0 106 18 142 56 35 38 48 74 48 134 0 118 -74 190 -192
190 -29 -1 -66 -7 -83 -14z m162 -56 c87 -52 83 -198 -6 -245 -98 -50 -211 16
-211 123 0 85 56 142 140 142 27 0 58 -8 77 -20z"/>
<path d="M6665 3426 c-37 -17 -80 -62 -94 -99 -6 -16 -11 -50 -11 -77 0 -117
73 -190 190 -190 61 0 106 18 142 56 35 38 48 74 48 134 0 118 -74 190 -192
190 -29 -1 -66 -7 -83 -14z m162 -56 c87 -52 83 -198 -6 -245 -98 -50 -211 16
-211 123 0 85 56 142 140 142 27 0 58 -8 77 -20z"/>
<path d="M7165 3426 c-37 -17 -80 -62 -94 -99 -6 -16 -11 -50 -11 -77 0 -117
73 -190 190 -190 61 0 106 18 142 56 35 38 48 74 48 134 0 118 -74 190 -192
190 -29 -1 -66 -7 -83 -14z m162 -56 c87 -52 83 -198 -6 -245 -98 -50 -211 16
-211 123 0 85 56 142 140 142 27 0 58 -8 77 -20z"/>
<path d="M8665 3426 c-37 -17 -80 -62 -94 -99 -6 -16 -11 -50 -11 -77 0 -117
73 -190 190 -190 61 0 106 18 142 56 35 38 48 74 48 134 0 118 -74 190 -192
190 -29 -1 -66 -7 -83 -14z m162 -56 c87 -52 83 -198 -6 -245 -98 -50 -211 16
-211 123 0 85 56 142 140 142 27 0 58 -8 77 -20z"/>
<path d="M10165 3426 c-37 -17 -80 -62 -94 -99 -6 -16 -11 -50 -11 -77 0 -117
73 -190 190 -190 61 0 106 18 142 56 35 38 48 74 48 134 0 118 -74 190 -192
190 -29 -1 -66 -7 -83 -14z m162 -56 c87 -52 83 -198 -6 -245 -98 -50 -211 16
-211 123 0 85 56 142 140 142 27 0 58 -8 77 -20z"/>
<path d="M10665 3426 c-37 -17 -80 -62 -94 -99 -6 -16 -11 -50 -11 -77 0 -117
73 -190 190 -190 61 0 106 18 142 56 35 38 48 74 48 134 0 118 -74 190 -192
190 -29 -1 -66 -7 -83 -14z m162 -56 c87 -52 83 -198 -6 -245 -98 -50 -211 16
-211 123 0 85 56 142 140 142 27 0 58 -8 77 -20z"/>
<path d="M11165 3426 c-37 -17 -80 -62 -94 -99 -6 -16 -11 -50 -11 -77 0 -117
73 -190 190 -190 61 0 106 18 142 56 35 38 48 74 48 134 0 118 -74 190 -192
190 -29 -1 -66 -7 -83 -14z m162 -56 c87 -52 83 -198 -6 -245 -98 -50 -211 16
-211 123 0 85 56 142 140 142 27 0 58 -8 77 -20z"/>
<path d="M3165 2926 c-37 -17 -80 -62 -94 -99 -6 -16 -11 -50 -11 -77 0 -117
73 -190 190 -190 61 0 106 18 142 56 35 38 48 74 48 134 0 118 -74 190 -192
190 -29 -1 -66 -7 -83 -14z m162 -56 c87 -52 83 -198 -6 -245 -98 -50 -211 16
-211 123 0 85 56 142 140 142 27 0 58 -8 77 -20z"/>
<path d="M6165 2926 c-37 -17 -80 -62 -94 -99 -6 -16 -11 -50 -11 -77 0 -117
73 -190 190 -190 61 0 106 18 142 56 35 38 48 74 48 134 0 118 -74 190 -192
190 -29 -1 -66 -7 -83 -14z m162 -56 c87 -52 83 -198 -6 -245 -98 -50 -211 16
-211 123 0 85 56 142 140 142 27 0 58 -8 77 -20z"/>
<path d="M6665 2926 c-37 -17 -80 -62 -94 -99 -6 -16 -11 -50 -11 -77 0 -117
73 -190 190 -190 61 0 106 18 142 56 35 38 48 74 48 134 0 118 -74 190 -192
190 -29 -1 -66 -7 -83 -14z m162 -56 c87 -52 83 -198 -6 -245 -98 -50 -211 16
-211 123 0 85 56 142 140 142 27 0 58 -8 77 -20z"/>
<path d="M7165 2926 c-37 -17 -80 -62 -94 -99 -6 -16 -11 -50 -11 -77 0 -117
73 -190 190 -190 61 0 106 18 142 56 35 38 48 74 48 134 0 118 -74 190 -192
190 -29 -1 -66 -7 -83 -14z m162 -56 c87 -52 83 -198 -6 -245 -98 -50 -211 16
-211 123 0 85 56 142 140 142 27 0 58 -8 77 -20z"/>
<path d="M7665 2926 c-37 -17 -80 -62 -94 -99 -6 -16 -11 -50 -11 -77 0 -117
73 -190 190 -190 61 0 106 18 142 56 35 38 48 74 48 134 0 118 -74 190 -192
190 -29 -1 -66 -7 -83 -14z m162 -56 c87 -52 83 -198 -6 -245 -98 -50 -211 16
-211 123 0 85 56 142 140 142 27 0 58 -8 77 -20z"/>
<path d="M9165 2926 c-37 -17 -80 -62 -94 -99 -6 -16 -11 -50 -11 -77 0 -117
73 -190 190 -190 61 0 106 18 142 56 35 38 48 74 48 134 0 118 -74 190 -192
190 -29 -1 -66 -7 -83 -14z m162 -56 c87 -52 83 -198 -6 -245 -98 -50 -211 16
-211 123 0 85 56 142 140 142 27 0 58 -8 77 -20z"/>
<path d="M10665 2926 c-37 -17 -80 -62 -94 -99 -6 -16 -11 -50 -11 -77 0 -117
73 -190 190 -190 61 0 106 18 142 56 35 38 48 74 48 134 0 118 -74 190 -192
190 -29 -1 -66 -7 -83 -14z m162 -56 c87 -52 83 -198 -6 -245 -98 -50 -211 16
-211 123 0 85 56 142 140 142 27 0 58 -8 77 -20z"/>
<path d="M11665 2926 c-37 -17 -80 -62 -94 -99 -6 -16 -11 -50 -11 -77 0 -117
73 -190 190 -190 61 0 106 18 142 56 35 38 48 74 48 134 0 118 -74 190 -192
190 -29 -1 -66 -7 -83 -14z m162 -56 c87 -52 83 -198 -6 -245 -98 -50 -211 16
-211 123 0 85 56 142 140 142 27 0 58 -8 77 -20z"/>
<path d="M3665 2426 c-37 -17 -80 -62 -94 -99 -6 -16 -11 -50 -11 -77 0 -117
73 -190 190 -190 61 0 106 18 142 56 35 38 48 74 48 134 0 118 -74 190 -192
190 -29 -1 -66 -7 -83 -14z m162 -56 c87 -52 83 -198 -6 -245 -98 -50 -211 16
-211 123 0 85 56 142 140 142 27 0 58 -8 77 -20z"/>
<path d="M6165 2426 c-37 -17 -80 -62 -94 -99 -6 -16 -11 -50 -11 -77 0 -117
73 -190 190 -190 61 0 106 18 142 56 35 38 48 74 48 134 0 118 -74 190 -192
190 -29 -1 -66 -7 -83 -14z m162 -56 c87 -52 83 -198 -6 -245 -98 -50 -211 16
-211 123 0 85 56 142 140 142 27 0 58 -8 77 -20z"/>
<path d="M6665 2426 c-37 -17 -80 -62 -94 -99 -6 -16 -11 -50 -11 -77 0 -117
73 -190 190 -190 61 0 106 18 142 56 35 38 48 74 48 134 0 118 -74 190 -192
190 -29 -1 -66 -7 -83 -14z m162 -56 c87 -52 83 -198 -6 -245 -98 -50 -211 16
-211 123 0 85 56 142 140 142 27 0 58 -8 77 -20z"/>
<path d="M7165 2426 c-37 -17 -80 -62 -94 -99 -6 -16 -11 -50 -11 -77 0 -117
73 -190 190 -190 61 0 106 18 142 56 35 38 48 74 48 134 0 118 -74 190 -192
190 -29 -1 -66 -7 -83 -14z m162 -56 c87 -52 83 -198 -6 -245 -98 -50 -211 16
-211 123 0 85 56 142 140 142 27 0 58 -8 77 -20z"/>
<path d="M7665 2426 c-37 -17 -80 -62 -94 -99 -6 -16 -11 -50 -11 -77 0 -117
73 -190 190 -190 61 0 106 18 142 56 35 38 48 74 48 134 0 118 -74 190 -192
190 -29 -1 -66 -7 -83 -14z m162 -56 c87 -52 83 -198 -6 -245 -98 -50 -211 16
-211 123 0 85 56 142 140 142 27 0 58 -8 77 -20z"/>
<path d="M8165 2426 c-37 -17 -80 -62 -94 -99 -6 -16 -11 -50 -11 -77 0 -117
73 -190 190 -190 61 0 106 18 142 56 35 38 48 74 48 134 0 118 -74 190 -192
190 -29 -1 -66 -7 -83 -14z m162 -56 c87 -52 83 -198 -6 -245 -98 -50 -211 16
-211 123 0 85 56 142 140 142 27 0 58 -8 77 -20z"/>
<path d="M9665 2426 c-37 -17 -80 -62 -94 -99 -6 -16 -11 -50 -11 -77 0 -117
73 -190 190 -190 61 0 106 18 142 56 35 38 48 74 48 134 0 118 -74 190 -192
190 -29 -1 -66 -7 -83 -14z m162 -56 c87 -52 83 -198 -6 -245 -98 -50 -211 16
-211 123 0 85 56 142 140 142 27 0 58 -8 77 -20z"/>
<path d="M11165 2426 c-37 -17 -80 -62 -94 -99 -6 -16 -11 -50 -11 -77 0 -117
73 -190 190 -190 61 0 106 18 142 56 35 38 48 74 48 134 0 118 -74 190 -192
190 -29 -1 -66 -7 -83 -14z m162 -56 c87 -52 83 -198 -6 -245 -98 -50 -211 16
-211 123 0 85 56 142 140 142 27 0 58 -8 77 -20z"/>
<path d="M4165 1926 c-37 -17 -80 -62 -94 -99 -6 -16 -11 -50 -11 -77 0 -117
73 -190 190 -190 61 0 106 18 142 56 35 38 48 74 48 134 0 118 -74 190 -192
190 -29 -1 -66 -7 -83 -14z m162 -56 c87 -52 83 -198 -6 -245 -98 -50 -211 16
-211 123 0 85 56 142 140 142 27 0 58 -8 77 -20z"/>
<path d="M6665 1926 c-37 -17 -80 -62 -94 -99 -6 -16 -11 -50 -11 -77 0 -117
73 -190 190 -190 61 0 106 18 142 56 35 38 48 74 48 134 0 118 -74 190 -192
190 -29 -1 -66 -7 -83 -14z m162 -56 c87 -52 83 -198 -6 -245 -98 -50 -211 16
-211 123 0 85 56 142 140 142 27 0 58 -8 77 -20z"/>
<path d="M7165 1926 c-37 -17 -80 -62 -94 -99 -6 -16 -11 -50 -11 -77 0 -117
73 -190 190 -190 61 0 106 18 142 56 35 38 48 74 48 134 0 118 -74 190 -192
190 -29 -1 -66 -7 -83 -14z m162 -56 c87 -52 83 -198 -6 -245 -98 -50 -211 16
-211 123 0 85 56 142 140 142 27 0 58 -8 77 -20z"/>
<path d="M7665 1926 c-37 -17 -80 -62 -94 -99 -6 -16 -11 -50 -11 -77 0 -117
73 -190 190 -190 61 0 106 18 142 56 35 38 48 74 48 134 0 118 -74 190 -192
190 -29 -1 -66 -7 -83 -14z m162 -56 c87 -52 83 -198 -6 -245 -98 -50 -211 16
-211 123 0 85 56 142 140 142 27 0 58 -8 77 -20z"/>
<path d="M8165 1926 c-37 -17 -80 -62 -94 -99 -6 -16 -11 -50 -11 -77 0 -117
73 -190 190 -190 61 0 106 18 142 56 35 38 48 74 48 134 0 118 -74 190 -192
190 -29 -1 -66 -7 -83 -14z m162 -56 c87 -52 83 -198 -6 -245 -98 -50 -211 16
-211 123 0 85 56 142 140 142 27 0 58 -8 77 -20z"/>
<path d="M8665 1926 c-37 -17 -80 -62 -94 -99 -6 -16 -11 -50 -11 -77 0 -117
73 -190 190 -190 61 0 106 18 142 56 35 38 48 74 48 134 0 118 -74 190 -192
190 -29 -1 -66 -7 -83 -14z m162 -56 c87 -52 83 -198 -6 -245 -98 -50 -211 16
-211 123 0 85 56 142 140 142 27 0 58 -8 77 -20z"/>
<path d="M10165 1926 c-37 -17 -80 -62 -94 -99 -6 -16 -11 -50 -11 -77 0 -117
73 -190 190 -190 61 0 106 18 142 56 35 38 48 74 48 134 0 118 -74 190 -192
190 -29 -1 -66 -7 -83 -14z m162 -56 c87 -52 83 -198 -6 -245 -98 -50 -211 16
-211 123 0 85 56 142 140 142 27 0 58 -8 77 -20z"/>
<path d="M11665 1926 c-37 -17 -80 -62 -94 -99 -6 -16 -11 -50 -11 -77 0 -117
73 -190 190 -190 61 0 106 18 142 56 35 38 48 74 48 134 0 118 -74 190 -192
190 -29 -1 -66 -7 -83 -14z m162 -56 c87 -52 83 -198 -6 -245 -98 -50 -211 16
-211 123 0 85 56 142 140 142 27 0 58 -8 77 -20z"/>
<path d="M4665 1426 c-37 -17 -80 -62 -94 -99 -6 -16 -11 -50 -11 -77 0 -117
73 -190 190 -190 61 0 106 18 142 56 35 38 48 74 48 134 0 118 -74 190 -192
190 -29 -1 -66 -7 -83 -14z m162 -56 c87 -52 83 -198 -6 -245 -98 -50 -211 16
-211 123 0 85 56 142 140 142 27 0 58 -8 77 -20z"/>
<path d="M7165 1426 c-37 -17 -80 -62 -94 -99 -6 -16 -11 -50 -11 -77 0 -117
73 -190 190 -190 61 0 106 18 142 56 35 38 48 74 48 134 0 118 -74 190 -192
190 -29 -1 -66 -7 -83 -14z m162 -56 c87 -52 83 -198 -6 -245 -98 -50 -211 16
-211 123 0 85 56 142 140 142 27 0 58 -8 77 -20z"/>
<path d="M7665 1426 c-37 -17 -80 -62 -94 -99 -6 -16 -11 -50 -11 -77 0 -117
73 -190 190 -190 61 0 106 18 142 56 35 38 48 74 48 134 0 118 -74 190 -192
190 -29 -1 -66 -7 -83 -14z m162 -56 c87 -52 83 -198 -6 -245 -98 -50 -211 16
-211 123 0 85 56 142 140 142 27 0 58 -8 77 -20z"/>
<path d="M8165 1426 c-37 -17 -80 -62 -94 -99 -6 -16 -11 -50 -11 -77 0 -117
73 -190 190 -190 61 0 106 18 142 56 35 38 48 74 48 134 0 118 -74 190 -192
190 -29 -1 -66 -7 -83 -14z m162 -56 c87 -52 83 -198 -6 -245 -98 -50 -211 16
-211 123 0 85 56 142 140 142 27 0 58 -8 77 -20z"/>
<path d="M8665 1426 c-37 -17 -80 -62 -94 -99 -6 -16 -11 -50 -11 -77 0 -117
73 -190 190 -190 61 0 106 18 142 56 35 38 48 74 48 134 0 118 -74 190 -192
190 -29 -1 -66 -7 -83 -14z m162 -56 c87 -52 83 -198 -6 -245 -98 -50 -211 16
-211 123 0 85 56 142 140 142 27 0 58 -8 77 -20z"/>
<path d="M9165 1426 c-37 -17 -80 -62 -94 -99 -6 -16 -11 -50 -11 -77 0 -117
73 -190 190 -190 61 0 106 18 142 56 35 38 48 74 48 134 0 118 -74 190 -192
190 -29 -1 -66 -7 -83 -14z m162 -56 c87 -52 83 -198 -6 -245 -98 -50 -211 16
-211 123 0 85 56 142 140 142 27 0 58 -8 77 -20z"/>
<path d="M10665 1426 c-37 -17 -80 -62 -94 -99 -6 -16 -11 -50 -11 -77 0 -117
73 -190 190 -190 61 0 106 18 142 56 35 38 48 74 48 134 0 118 -74 190 -192
190 -29 -1 -66 -7 -83 -14z m162 -56 c87 -52 83 -198 -6 -245 -98 -50 -211 16
-211 123 0 85 56 142 140 142 27 0 58 -8 77 -20z"/>
<path d="M11165 1426 c-37 -17 -80 -62 -94 -99 -6 -16 -11 -50 -11 -77 0 -117
73 -190 190 -190 61 0 106 18 142 56 35 38 48 74 48 134 0 118 -74 190 -192
190 -29 -1 -66 -7 -83 -14z m162 -56 c87 -52 83 -198 -6 -245 -98 -50 -211 16
-211 123 0 85 56 142 140 142 27 0 58 -8 77 -20z"/>
<path d="M5165 926 c-37 -17 -80 -62 -94 -99 -6 -16 -11 -50 -11 -77 0 -117
73 -190 190 -190 61 0 106 18 142 56 35 38 48 74 48 134 0 118 -74 190 -192
190 -29 -1 -66 -7 -83 -14z m162 -56 c87 -52 83 -198 -6 -245 -98 -50 -211 16
-211 123 0 85 56 142 140 142 27 0 58 -8 77 -20z"/>
<path d="M6665 926 c-37 -17 -80 -62 -94 -99 -6 -16 -11 -50 -11 -77 0 -117
73 -190 190 -190 61 0 106 18 142 56 35 38 48 74 48 134 0 118 -74 190 -192
190 -29 -1 -66 -7 -83 -14z m162 -56 c87 -52 83 -198 -6 -245 -98 -50 -211 16
-211 123 0 85 56 142 140 142 27 0 58 -8 77 -20z"/>
<path d="M7665 926 c-37 -17 -80 -62 -94 -99 -6 -16 -11 -50 -11 -77 0 -117
73 -190 190 -190 61 0 106 18 142 56 35 38 48 74 48 134 0 118 -74 190 -192
190 -29 -1 -66 -7 -83 -14z m162 -56 c87 -52 83 -198 -6 -245 -98 -50 -211 16
-211 123 0 85 56 142 140 142 27 0 58 -8 77 -20z"/>
<path d="M8665 926 c-37 -17 -80 -62 -94 -99 -6 -16 -11 -50 -11 -77 0 -117
73 -190 190 -190 61 0 106 18 142 56 35 38 48 74 48 134 0 118 -74 190 -192
190 -29 -1 -66 -7 -83 -14z m162 -56 c87 -52 83 -198 -6 -245 -98 -50 -211 16
-211 123 0 85 56 142 140 142 27 0 58 -8 77 -20z"/>
<path d="M9665 926 c-37 -17 -80 -62 -94 -99 -6 -16 -11 -50 -11 -77 0 -117
73 -190 190 -190 61 0 106 18 142 56 35 38 48 74 48 134 0 118 -74 190 -192
190 -29 -1 -66 -7 -83 -14z m162 -56 c87 -52 83 -198 -6 -245 -98 -50 -211 16
-211 123 0 85 56 142 140 142 27 0 58 -8 77 -20z"/>
<path d="M10665 926 c-37 -17 -80 -62 -94 -99 -6 -16 -11 -50 -11 -77 0 -117
73 -190 190 -190 61 0 106 18 142 56 35 38 48 74 48 134 0 118 -74 190 -192
190 -29 -1 -66 -7 -83 -14z m162 -56 c87 -52 83 -198 -6 -245 -98 -50 -211 16
-211 123 0 85 56 142 140 142 27 0 58 -8 77 -20z"/>
<path d="M11165 926 c-37 -17 -80 -62 -94 -99 -6 -16 -11 -50 -11 -77 0 -117
73 -190 190 -190 61 0 106 18 142 56 35 38 48 74 48 134 0 118 -74 190 -192
190 -29 -1 -66 -7 -83 -14z m162 -56 c87 -52 83 -198 -6 -245 -98 -50 -211 16
-211 123 0 85 56 142 140 142 27 0 58 -8 77 -20z"/>
<path d="M11665 926 c-37 -17 -80 -62 -94 -99 -6 -16 -11 -50 -11 -77 0 -117
73 -190 190 -190 61 0 106 18 142 56 35 38 48 74 48 134 0 118 -74 190 -192
190 -29 -1 -66 -7 -83 -14z m162 -56 c87 -52 83 -198 -6 -245 -98 -50 -211 16
-211 123 0 85 56 142 140 142 27 0 58 -8 77 -20z"/>
<path d="M5665 426 c-37 -17 -80 -62 -94 -99 -6 -16 -11 -50 -11 -77 0 -117
73 -190 190 -190 61 0 106 18 142 56 35 38 48 74 48 134 0 118 -74 190 -192
190 -29 -1 -66 -7 -83 -14z m162 -56 c87 -52 83 -198 -6 -245 -98 -50 -211 16
-211 123 0 85 56 142 140 142 27 0 58 -8 77 -20z"/>
<path d="M6165 426 c-37 -17 -80 -62 -94 -99 -6 -16 -11 -50 -11 -77 0 -117
73 -190 190 -190 61 0 106 18 142 56 35 38 48 74 48 134 0 118 -74 190 -192
190 -29 -1 -66 -7 -83 -14z m162 -56 c87 -52 83 -198 -6 -245 -98 -50 -211 16
-211 123 0 85 56 142 140 142 27 0 58 -8 77 -20z"/>
<path d="M7165 426 c-37 -17 -80 -62 -94 -99 -6 -16 -11 -50 -11 -77 0 -117
73 -190 190 -190 61 0 106 18 142 56 35 38 48 74 48 134 0 118 -74 190 -192
190 -29 -1 -66 -7 -83 -14z m162 -56 c87 -52 83 -198 -6 -245 -98 -50 -211 16
-211 123 0 85 56 142 140 142 27 0 58 -8 77 -20z"/>
<path d="M8165 426 c-37 -17 -80 -62 -94 -99 -6 -16 -11 -50 -11 -77 0 -117
73 -190 190 -190 61 0 106 18 142 56 35 38 48 74 48 134 0 118 -74 190 -192
190 -29 -1 -66 -7 -83 -14z m162 -56 c87 -52 83 -198 -6 -245 -98 -50 -211 16
-211 123 0 85 56 142 140 142 27 0 58 -8 77 -20z"/>
<path d="M9165 426 c-37 -17 -80 -62 -94 -99 -6 -16 -11 -50 -11 -77 0 -117
73 -190 190 -190 61 0 106 18 142 56 35 38 48 74 48 134 0 118 -74 190 -192
190 -29 -1 -66 -7 -83 -14z m162 -56 c87 -52 83 -198 -6 -245 -98 -50 -211 16
-211 123 0 85 56 142 140 142 27 0 58 -8 77 -20z"/>
<path d="M10165 426 c-37 -17 -80 -62 -94 -99 -6 -16 -11 -50 -11 -77 0 -117
73 -190 190 -190 61 0 106 18 142 56 35 38 48 74 48 134 0 118 -74 190 -192
190 -29 -1 -66 -7 -83 -14z m162 -56 c87 -52 83 -198 -6 -245 -98 -50 -211 16
-211 123 0 85 56 142 140 142 27 0 58 -8 77 -20z"/>
<path d="M11165 426 c-37 -17 -80 -62 -94 -99 -6 -16 -11 -50 -11 -77 0 -117
73 -190 190 -190 61 0 106 18 142 56 35 38 48 74 48 134 0 118 -74 190 -192
190 -29 -1 -66 -7 -83 -14z m162 -56 c87 -52 83 -198 -6 -245 -98 -50 -211 16
-211 123 0 85 56 142 140 142 27 0 58 -8 77 -20z"/>
<path d="M11665 426 c-37 -17 -80 -62 -94 -99 -6 -16 -11 -50 -11 -77 0 -117
73 -190 190 -190 61 0 106 18 142 56 35 38 48 74 48 134 0 118 -74 190 -192
190 -29 -1 -66 -7 -83 -14z m162 -56 c87 -52 83 -198 -6 -245 -98 -50 -211 16
-211 123 0 85 56 142 140 142 27 0 58 -8 77 -20z"/>
</g>
</svg>
