<!DOCTYPE svg PUBLIC "-//W3C//DTD SVG 20010904//EN"
 "http://www.w3.org/TR/2001/REC-SVG-20010904/DTD/svg10.dtd">
<svg version="1.0" xmlns="http://www.w3.org/2000/svg"
 width="1135.000000pt" height="1280.000000pt" viewBox="0 0 1135.000000 1280.000000"
 preserveAspectRatio="xMidYMid meet">
<g transform="translate(0.000000,1280.000000) scale(0.100000,-0.100000)"
fill="#ee757d" opacity=".4" stroke="none">
<path d="M6459 12617 c-391 -439 -713 -838 -994 -1232 -855 -1196 -1348 -2383
-1475 -3555 -28 -258 -31 -274 -40 -264 -4 5 -15 112 -25 237 -84 1173 -350
2143 -800 2917 -542 935 -1323 1517 -2225 1659 -69 11 -167 23 -219 27 -111 8
-110 16 -21 -116 33 -50 120 -186 194 -303 1322 -2112 1920 -4161 1645 -5642
-25 -138 -58 -263 -71 -271 -6 -4 -8 4 -4 22 47 226 81 556 71 689 -46 621
-487 738 -1770 469 -217 -46 -623 -142 -641 -152 -9 -5 51 -21 153 -41 507
-100 866 -259 1105 -489 358 -345 409 -820 150 -1400 -105 -236 -243 -441
-501 -747 -329 -388 -537 -752 -640 -1118 -80 -284 -82 -602 -7 -862 220 -758
1053 -1405 2403 -1865 852 -291 1874 -491 2808 -550 94 -6 225 -15 293 -20
157 -13 382 -13 530 0 65 5 227 19 362 30 631 53 1010 110 1450 216 758 183
1361 460 1860 855 135 106 412 384 519 519 496 626 737 1378 778 2425 11 278
-44 883 -122 1340 -113 662 -225 1042 -395 1336 -67 114 -302 480 -306 476 -3
-2 1 -125 7 -273 16 -376 7 -889 -20 -1113 -55 -457 -160 -820 -347 -1193
-105 -210 -332 -568 -361 -568 -7 0 -13 1 -13 3 0 1 -7 40 -15 87 -9 47 -18
180 -21 295 -12 415 41 811 232 1715 239 1133 287 1392 334 1800 43 383 55
780 30 1064 -12 144 -28 219 -29 139 -1 -63 -26 -180 -55 -256 -51 -136 -171
-284 -321 -399 -33 -25 -168 -117 -300 -205 -132 -88 -275 -188 -318 -221
-347 -267 -554 -563 -693 -990 -31 -95 -60 -170 -64 -165 -4 4 -13 172 -19
373 -7 201 -23 592 -36 870 -32 671 -43 965 -50 1325 -7 298 6 774 25 1008 54
633 170 1114 360 1491 27 55 48 101 46 103 -4 4 -479 -524 -801 -893 -759
-865 -1178 -1411 -1465 -1909 -95 -165 -232 -452 -290 -610 -29 -77 -56 -144
-61 -150 -18 -18 -8 75 50 485 134 935 180 1493 226 2750 16 438 31 757 41
903 4 48 3 87 -2 86 -5 0 -66 -64 -135 -142z"/>
</g>
</svg>
