<svg version="1.0" xmlns="http://www.w3.org/2000/svg"
 width="24px" height="24px" viewBox="0 0 1280.000000 1280.000000"
 preserveAspectRatio="xMidYMid meet">
<g transform="translate(0.000000,1280.000000) scale(0.100000,-0.100000)"
fill="#ff4654" opacity="1" stroke="none">
<path d="M2900 12140 c-964 -126 -1745 -626 -2205 -1414 -251 -430 -407 -950
-467 -1561 -17 -170 -16 -718 0 -905 93 -1032 408 -2041 980 -3138 176 -337
339 -600 553 -894 914 -1253 2490 -2631 4482 -3916 l157 -102 158 102 c1991
1285 3567 2663 4481 3916 214 294 377 557 553 894 572 1097 887 2106 980 3138
16 187 17 735 0 905 -60 611 -216 1131 -467 1561 -466 797 -1264 1302 -2240
1418 -173 21 -536 21 -715 0 -1111 -127 -2083 -820 -2686 -1916 -32 -59 -61
-107 -64 -107 -3 0 -32 48 -64 107 -603 1096 -1575 1789 -2686 1916 -187 22
-570 20 -750 -4z"/>
</g>
</svg>
