<svg version="1.0" xmlns="http://www.w3.org/2000/svg"
 width="22px" height="22px" viewBox="0 0 196.000000 198.000000"
 preserveAspectRatio="xMidYMid meet">
<g transform="translate(0.000000,198.000000) scale(0.100000,-0.100000)"
fill="#ffffff" stroke="none">
<path d="M898 1945 c-2 -2 -29 -6 -61 -9 -31 -4 -76 -14 -98 -22 -23 -7 -49
-14 -58 -14 -24 0 -224 -104 -273 -142 -44 -33 -161 -148 -188 -184 -93 -120
-153 -257 -188 -429 -8 -39 -8 -281 0 -320 35 -172 95 -309 188 -429 28 -37
145 -151 189 -185 50 -39 247 -141 272 -141 9 0 35 -7 58 -14 75 -27 279 -39
381 -23 146 24 323 96 426 174 150 113 246 240 337 443 30 68 56 221 56 335 0
114 -26 267 -56 335 -91 203 -187 330 -337 443 -102 77 -269 146 -419 173 -32
5 -224 13 -229 9z m232 -80 c28 -6 54 -12 88 -19 47 -10 68 -19 156 -62 111
-55 163 -94 246 -181 169 -176 249 -374 249 -618 0 -244 -80 -442 -249 -618
-83 -87 -135 -126 -246 -181 -86 -42 -109 -52 -153 -61 -12 -3 -31 -7 -43 -10
-107 -26 -294 -26 -393 -1 -11 3 -39 10 -63 16 -23 6 -50 14 -60 19 -9 5 -39
19 -67 31 -87 40 -157 90 -236 169 -136 135 -226 297 -256 461 -10 58 -10 292
0 350 47 256 253 520 492 630 28 12 58 26 67 31 10 5 37 13 60 19 24 6 52 13
63 16 11 2 40 7 65 11 25 3 47 7 49 9 5 5 202 -4 231 -11z"/>
<path d="M1490 1403 c0 -5 -10 -20 -23 -34 -12 -15 -33 -41 -47 -59 -14 -18
-32 -40 -40 -50 -8 -10 -26 -32 -40 -50 -14 -18 -32 -40 -40 -50 -8 -10 -26
-32 -40 -50 -14 -18 -32 -40 -40 -50 -8 -10 -26 -32 -40 -50 -14 -18 -49 -63
-77 -99 -29 -36 -53 -69 -53 -73 0 -5 74 -8 165 -8 l166 0 27 29 c103 108 102
106 102 344 0 131 -4 207 -10 207 -5 0 -10 -3 -10 -7z"/>
<path d="M460 1186 c0 -188 2 -215 18 -233 9 -11 28 -35 42 -53 14 -18 32 -40
40 -50 8 -10 26 -32 40 -50 14 -18 32 -40 40 -50 8 -10 26 -32 40 -50 14 -18
32 -41 40 -50 41 -50 50 -61 65 -84 l17 -26 175 0 175 0 -18 28 c-10 15 -22
32 -28 39 -12 12 -39 46 -216 268 -126 159 -142 179 -173 219 -12 16 -29 36
-37 46 -8 10 -26 32 -40 50 -14 18 -32 40 -40 50 -8 10 -26 32 -40 50 -14 18
-35 44 -47 59 -13 14 -23 29 -23 32 0 4 -7 9 -15 13 -13 5 -15 -22 -15 -208z"/>
</g>
</svg>
