<svg version="1.0" xmlns="http://www.w3.org/2000/svg"
 width="16px" height="16px" viewBox="0 0 840.000000 880.000000"
 preserveAspectRatio="xMidYMid meet">
<g transform="translate(0.000000,880.000000) scale(0.100000,-0.100000)"
fill="#ffffff" stroke="none">
<path d="M3895 8389 c-822 -69 -1564 -363 -2205 -875 -174 -140 -467 -432
-604 -604 -460 -577 -743 -1230 -845 -1945 -174 -1225 223 -2451 1081 -3340
456 -472 1008 -820 1628 -1025 1050 -347 2223 -237 3185 299 176 98 411 257
575 387 173 138 466 431 602 602 462 579 745 1230 847 1947 157 1102 -144
2198 -845 3075 -140 174 -432 467 -604 604 -611 487 -1301 774 -2070 862 -155
18 -598 26 -745 13z m700 -584 c788 -92 1491 -436 2047 -1001 546 -555 869
-1229 964 -2014 37 -298 21 -725 -37 -1030 -265 -1385 -1344 -2464 -2729
-2729 -305 -58 -732 -74 -1030 -37 -136 16 -438 71 -448 81 -3 3 15 58 40 122
60 154 120 373 299 1088 28 116 55 214 59 218 4 5 21 -14 39 -41 66 -103 210
-221 366 -299 198 -99 359 -136 595 -136 409 0 796 128 1128 374 107 79 293
257 379 364 384 477 597 1111 628 1870 23 560 -148 1077 -498 1510 -86 106
-280 294 -395 383 -489 376 -1123 558 -1820 522 -493 -26 -891 -127 -1282
-325 -721 -367 -1212 -1016 -1362 -1800 -20 -107 -23 -150 -23 -385 0 -288 8
-359 65 -576 73 -276 181 -479 349 -656 106 -112 190 -175 316 -238 138 -69
213 -66 258 10 23 37 117 407 117 457 0 43 -2 47 -118 205 -147 200 -212 423
-212 725 0 314 63 582 205 868 93 187 177 306 325 458 286 297 607 464 1045
548 159 31 501 38 686 14 403 -51 706 -190 954 -439 159 -159 263 -330 334
-543 63 -190 76 -290 75 -573 -1 -327 -26 -536 -100 -831 -116 -461 -344 -855
-613 -1060 -78 -59 -241 -141 -326 -164 -95 -26 -287 -31 -379 -11 -161 36
-327 150 -404 279 -62 103 -85 188 -86 312 0 129 21 216 178 730 152 500 186
656 186 850 0 200 -52 347 -158 453 -100 99 -209 142 -363 143 -110 1 -185
-14 -274 -56 -450 -208 -636 -880 -419 -1515 l35 -105 -255 -1079 c-256 -1078
-288 -1220 -301 -1328 -4 -32 -9 -58 -11 -58 -9 0 -194 107 -274 158 -320 205
-627 488 -869 800 -322 414 -545 906 -645 1421 -81 414 -82 894 -5 1301 130
680 456 1295 945 1784 582 582 1332 927 2164 995 152 13 492 5 655 -14z"/>
</g>
</svg>
